<svg xmlns="http://www.w3.org/2000/svg" xmlns:xlink="http://www.w3.org/1999/xlink" version="1.1" id="Layer_1" x="0px" y="0px" width="100px" height="100px" viewBox="0 0 100 100" enable-background="new 0 0 100 100" xml:space="preserve">
<path d="M7.438,21.588c-0.84,0-1.646,0.173-2.385,0.462l44.533,36.875l45.19-36.722c-0.838-0.391-1.75-0.616-2.729-0.616H7.438z"/>
<path d="M98.349,26.466L51.324,64.684c-0.513,0.416-1.134,0.621-1.755,0.621c-0.633,0-1.259-0.217-1.772-0.639l-46.55-38.55  c-0.211,0.644-0.348,1.31-0.348,2.011v50.595c0,0.767,0.154,1.492,0.394,2.18l25.942-25.324c1.103-1.072,2.863-1.055,3.935,0.045  c1.071,1.098,1.048,2.854-0.046,3.932L5.213,84.851c0.695,0.25,1.441,0.41,2.225,0.41h84.608c0.877,0,1.709-0.179,2.479-0.489  L68.5,59.361c-1.105-1.071-1.123-2.838-0.046-3.933c1.071-1.105,2.827-1.121,3.933-0.045L98.27,80.645  c0.188-0.609,0.312-1.25,0.312-1.922V28.127C98.582,27.552,98.486,27.005,98.349,26.466z"/>
</svg>